
<svg width="306" height="29" viewBox="0 0 306 29" fill="none" xmlns="http://www.w3.org/2000/svg">

<g transform="translate(0.000000,257.000000) scale(0.100000,-0.100000)"
fill="#000000" stroke="none">
<path d="M485 2554 c-203 -16 -295 -34 -326 -65 -26 -26 -25 -31 19 -81 102
-118 151 -237 152 -364 0 -100 -21 -167 -85 -264 -67 -102 -122 -222 -146
-320 -27 -107 -23 -245 10 -332 64 -168 238 -294 461 -334 41 -7 81 -13 88
-14 9 0 12 -53 12 -230 l0 -230 -32 0 c-18 0 -94 -5 -168 -10 -353 -26 -511
-93 -445 -186 49 -71 315 -116 685 -116 475 0 741 69 692 177 -31 68 -210 111
-544 131 l-118 7 0 227 0 228 58 7 c93 11 172 34 257 75 192 93 287 241 288
445 0 149 -45 282 -162 474 -33 54 -67 125 -77 157 -40 139 16 329 139 469 20
24 37 50 37 57 0 36 -57 60 -180 78 -76 11 -524 21 -615 14z m615 -82 c73 -12
26 -21 -186 -34 -150 -9 -241 -9 -400 0 -233 13 -286 26 -148 37 49 3 96 8
104 10 25 7 582 -4 630 -13z m-569 -102 c173 -9 523 1 584 16 22 6 21 2 -21
-83 -68 -135 -85 -246 -58 -379 l6 -32 -53 10 c-64 12 -186 4 -294 -18 -124
-26 -190 -6 -258 78 -23 29 -31 51 -37 110 -11 92 -44 194 -87 265 l-33 55 34
-6 c19 -4 117 -11 217 -16z m-38 -540 c60 -27 139 -28 262 -5 104 20 240 16
295 -7 73 -32 197 -276 221 -434 35 -238 -87 -420 -335 -500 -107 -34 -268
-43 -376 -20 -167 35 -315 138 -375 261 -26 51 -30 74 -33 160 -6 154 34 276
146 452 29 43 59 100 69 126 l17 47 31 -30 c16 -16 52 -39 78 -50z m177 -1623
c0 -50 18 -81 46 -75 16 3 20 13 22 62 l3 59 137 -7 c217 -10 439 -51 449 -83
11 -33 -243 -77 -507 -89 -265 -11 -622 25 -714 73 l-31 16 40 18 c73 33 298
65 473 68 l82 1 0 -43z"/>
<path d="M2190 1663 c-61 -22 -148 -111 -188 -193 -82 -166 -83 -425 -3 -595
60 -130 152 -195 283 -203 108 -6 161 10 218 67 55 56 83 130 84 221 1 59 -1
65 -21 68 -19 3 -22 -3 -28 -45 -25 -184 -123 -279 -251 -243 -80 23 -135 97
-171 230 -25 94 -25 347 1 447 43 173 157 244 267 170 44 -30 75 -77 95 -146
9 -31 19 -63 21 -71 3 -8 24 32 47 90 23 58 50 120 60 138 22 42 14 54 -24 35
-29 -14 -37 -13 -125 16 -108 35 -191 39 -265 14z"/>
<path d="M3800 1663 c-61 -22 -148 -111 -188 -193 -82 -166 -83 -425 -3 -595
60 -130 152 -195 283 -203 108 -6 161 10 218 67 55 56 83 130 84 221 1 59 -1
65 -21 68 -19 3 -22 -3 -28 -45 -25 -184 -123 -279 -251 -243 -80 23 -135 97
-171 230 -25 94 -25 347 1 447 43 173 157 244 267 170 44 -30 75 -77 95 -146
9 -31 19 -63 21 -71 3 -8 24 32 47 90 23 58 50 120 60 138 22 42 14 54 -24 35
-29 -14 -37 -13 -125 16 -108 35 -191 39 -265 14z"/>
<path d="M2962 1653 c-23 -8 -67 -37 -97 -65 -98 -89 -145 -223 -145 -413 0
-189 45 -312 151 -409 67 -63 126 -86 214 -86 168 0 288 115 331 320 24 114
15 301 -20 403 -42 125 -106 206 -196 246 -55 25 -173 27 -238 4z m199 -69
c72 -37 108 -143 116 -339 12 -287 -45 -465 -159 -495 -99 -27 -181 31 -223
155 -38 115 -36 405 4 536 44 140 153 200 262 143z"/>
<path d="M3015 1540 c-66 -42 -103 -152 -112 -336 -10 -205 21 -345 93 -415
40 -39 44 -31 8 16 -48 63 -66 144 -71 315 -7 235 29 365 111 404 45 21 61 20
124 -9 59 -27 66 -14 12 23 -43 29 -122 30 -165 2z"/>
<path d="M8675 1656 c-60 -14 -151 -55 -183 -82 l-24 -20 36 -19 36 -20 0
-143 0 -144 -36 4 c-33 4 -38 1 -50 -29 -8 -18 -14 -35 -14 -38 0 -3 23 -5 50
-5 37 0 50 -4 50 -14 0 -10 -16 -17 -45 -22 -28 -4 -45 -11 -45 -20 0 -10 11
-12 45 -7 l45 6 0 -164 0 -163 -42 -43 -42 -43 263 0 c179 0 277 4 305 12 54
16 131 93 145 144 30 107 1 223 -73 294 l-36 36 43 31 c86 60 116 197 68 310
-22 49 -71 109 -71 85 0 -6 5 -14 11 -18 6 -3 22 -30 35 -58 26 -56 31 -134
13 -199 -19 -71 -106 -146 -151 -131 -20 6 -17 9 25 30 29 15 58 40 74 66 24
36 28 51 28 117 0 65 -4 83 -28 124 -34 57 -92 102 -160 122 -60 18 -201 18
-272 1z m232 -63 c52 -24 87 -92 87 -167 -1 -120 -58 -175 -202 -191 l-63 -7
3 148 3 149 42 13 c56 18 112 3 150 -41 38 -43 55 -54 46 -30 -12 34 -45 73
-73 88 -38 19 -123 19 -160 0 l-30 -16 0 -154 c0 -131 -2 -155 -15 -155 -13 0
-15 26 -15 170 l0 169 32 17 c72 37 128 39 195 7z m4 -439 c26 -8 54 -23 64
-34 27 -30 44 -90 44 -160 1 -77 -22 -134 -68 -173 -32 -27 -50 -32 -158 -42
l-63 -6 0 182 0 182 75 -6 c91 -8 136 -26 175 -69 34 -37 39 -28 10 19 -30 50
-72 66 -182 71 l-98 4 -2 -188 c-2 -141 -6 -188 -16 -192 -10 -3 -12 41 -10
209 l3 213 25 7 c34 10 145 1 201 -17z"/>
<path d="M10535 1656 c-58 -14 -185 -71 -185 -83 0 -4 14 -16 30 -25 l30 -17
0 -186 0 -185 -38 0 c-37 0 -40 -2 -51 -41 -7 -23 -10 -43 -7 -46 3 -3 19 0
37 6 45 15 59 14 59 -7 0 -13 -11 -21 -37 -28 -20 -5 -39 -15 -41 -23 -5 -14
18 -12 62 5 14 5 16 -9 16 -120 l0 -126 -42 -46 -41 -45 152 2 c147 1 181 -5
181 -32 0 -5 -68 -9 -152 -9 -104 0 -149 -3 -142 -10 7 -7 73 -9 178 -8 l167
3 -56 67 -55 67 0 139 0 139 60 20 60 20 30 -96 c28 -91 70 -280 84 -383 l7
-47 66 44 c36 25 85 52 109 61 l44 17 -46 50 c-74 83 -168 253 -220 399 l-13
37 54 25 c75 34 131 95 152 165 38 130 -37 254 -180 296 -60 18 -201 18 -272
1z m180 -47 c52 -15 130 -90 122 -119 -3 -11 -1 -23 4 -26 15 -9 9 -87 -10
-130 -27 -60 -111 -116 -203 -138 l-28 -6 0 174 0 174 26 6 c43 11 112 -4 157
-35 51 -34 61 -29 22 11 -37 38 -83 52 -160 48 l-60 -3 -3 -187 c-2 -158 -5
-188 -17 -188 -13 0 -15 30 -15 199 0 214 -1 208 54 222 46 10 67 10 111 -2z
m-7 -491 c2 -13 -11 -19 -60 -30 l-63 -14 -3 -159 c-2 -151 -2 -159 19 -182
13 -12 20 -25 17 -28 -2 -3 -19 13 -36 34 l-32 40 0 169 0 169 58 10 c74 14
96 12 100 -9z"/>
<path d="M4358 1617 l42 -43 0 -399 0 -399 -42 -43 -42 -43 150 0 c144 0 174
-6 174 -32 0 -4 -68 -8 -151 -8 -97 0 -148 -4 -144 -10 6 -10 345 -15 345 -5
0 3 -22 36 -50 72 l-50 66 0 106 0 106 46 68 c25 37 49 67 53 67 4 0 42 -80
84 -177 l76 -178 -42 -37 -42 -37 176 -1 c161 0 179 -2 200 -20 l24 -19 -184
-1 c-126 0 -182 -3 -175 -10 7 -7 86 -9 217 -8 l207 3 -90 70 -91 71 -114 269
-114 269 57 75 c79 105 144 166 197 186 44 17 60 35 30 35 -31 0 -112 -49
-150 -92 -57 -61 -155 -192 -155 -205 0 -7 52 -132 115 -279 63 -147 112 -270
110 -273 -12 -11 -33 30 -145 285 l-118 268 21 31 c109 157 203 256 272 289
19 9 35 19 35 21 0 3 -80 5 -177 5 l-178 0 32 -20 c52 -31 68 -64 55 -108 -10
-33 -178 -282 -217 -322 -13 -12 -15 7 -15 159 l0 174 35 39 c20 21 33 44 29
50 -5 7 -21 -4 -46 -30 l-38 -41 0 -203 c-1 -163 -4 -207 -15 -222 -13 -18
-15 5 -15 204 l0 224 47 48 47 48 -159 0 -159 0 42 -43z m268 -533 l-56 -79 0
-125 c0 -87 4 -131 13 -140 6 -8 0 -4 -15 9 -28 24 -28 26 -28 141 l0 116 62
87 c36 52 65 84 70 79 6 -6 -13 -42 -46 -88z"/>
<path d="M5165 1643 c4 -10 24 -64 44 -120 39 -109 51 -130 51 -92 0 45 22
102 49 129 42 42 171 52 171 14 0 -10 -15 -14 -54 -14 -44 0 -60 -5 -85 -26
-30 -25 -51 -75 -51 -121 0 -37 17 -26 25 14 12 64 32 91 75 103 21 6 51 8 65
4 l25 -6 0 -371 0 -371 -47 -48 -47 -48 157 0 c146 0 157 -1 167 -20 10 -20 8
-20 -140 -20 -98 0 -149 -4 -145 -10 4 -6 73 -10 176 -10 l169 0 -49 68 -50
68 -7 384 -7 383 47 -6 c25 -4 60 -14 77 -23 23 -11 30 -12 27 -3 -9 26 -54
47 -110 51 l-58 5 0 -396 c0 -345 2 -400 16 -421 11 -18 7 -15 -15 8 l-31 33
2 407 3 407 24 3 c13 2 44 1 69 -3 60 -9 96 -46 118 -120 l17 -59 27 75 c15
41 37 93 48 116 12 23 22 45 22 48 0 3 -176 5 -391 5 -369 0 -391 -1 -384 -17z"/>
<path d="M6290 1656 c0 -2 14 -21 31 -42 34 -44 35 -34 -18 -202 l-36 -113
-32 31 c-44 43 -59 20 -16 -24 30 -31 40 -56 22 -56 -5 0 -21 16 -36 36 l-28
36 -32 -68 -31 -69 43 -13 c24 -7 46 -19 49 -26 7 -17 -26 -130 -66 -226 -36
-87 -87 -159 -142 -199 l-42 -31 165 0 c159 0 189 -5 189 -32 0 -4 -72 -8
-161 -8 -104 0 -158 -3 -154 -10 4 -6 77 -10 185 -10 l179 0 -45 72 c-41 66
-44 77 -44 139 0 39 9 94 21 134 24 77 18 79 89 -42 l38 -65 18 33 c21 42 96
139 106 139 17 0 5 -24 -53 -107 -36 -53 -55 -89 -48 -92 6 -2 15 3 20 10 22
39 85 123 95 126 6 2 25 -42 42 -99 l32 -103 -48 -42 -47 -43 176 0 c169 0
199 -5 199 -32 0 -4 -75 -8 -166 -8 -107 0 -163 -3 -159 -10 4 -6 81 -10 198
-10 l191 0 -71 73 -72 72 -51 156 c-27 86 -50 161 -50 168 0 7 19 9 60 4 33
-3 60 -3 60 1 0 4 -11 32 -24 64 -13 31 -29 74 -36 95 -6 20 -16 37 -22 37
-12 0 -2 -50 23 -108 11 -24 19 -48 19 -53 0 -5 -27 -9 -60 -9 -33 0 -60 -1
-60 -3 0 -1 27 -83 60 -182 47 -141 67 -186 92 -214 33 -34 32 -34 -14 5 -46
38 -49 43 -98 199 -28 88 -55 172 -60 187 -8 26 -6 28 28 38 20 5 47 10 59 10
l22 0 -19 43 c-10 23 -22 59 -25 80 l-7 38 -29 -27 c-33 -32 -25 -45 -80 128
l-38 121 30 38 c16 20 29 42 29 48 0 23 -19 10 -52 -35 l-35 -47 47 -149 c27
-81 44 -151 39 -154 -11 -6 -16 7 -70 180 l-43 136 33 45 32 45 -150 0 c-83 0
-151 -2 -151 -4z m120 -204 c0 -9 -18 -72 -41 -140 l-41 -122 29 -33 c47 -53
76 -106 68 -125 -5 -13 -13 -6 -37 33 -17 28 -44 67 -60 87 l-29 38 47 144
c43 129 64 168 64 118z m61 -182 l41 -130 -30 -35 -31 -34 -45 64 -45 64 31
101 c17 55 33 100 34 100 2 0 22 -58 45 -130z m-200 -274 c-32 -107 -37 -174
-17 -232 l16 -49 -20 25 c-47 59 -49 118 -9 254 30 105 28 101 41 88 8 -8 5
-31 -11 -86z"/>
<path d="M7008 1633 c11 -16 29 -37 41 -47 21 -19 21 -25 21 -415 l0 -395 -42
-43 -42 -43 155 0 c143 0 155 -1 167 -20 12 -20 10 -20 -144 -20 -101 0 -153
-3 -149 -10 4 -6 75 -10 181 -10 l175 0 -55 72 -56 71 0 384 0 383 35 39 c24
27 32 42 24 47 -7 4 -25 -9 -45 -32 l-33 -39 -1 -400 c0 -307 3 -404 13 -415
6 -8 0 -4 -15 9 l-28 24 0 391 0 391 46 53 46 52 -157 0 -156 0 19 -27z"/>
<path d="M7409 1643 c5 -10 23 -31 40 -47 l31 -30 0 -395 0 -395 -42 -43 -42
-43 343 0 c327 0 343 1 329 18 -22 24 -62 106 -88 182 -30 84 -36 90 -44 40
-9 -56 -38 -112 -76 -144 -37 -30 -61 -38 -133 -40 l-52 -1 -3 397 -2 397 30
34 c30 35 38 57 21 57 -5 0 -23 -18 -40 -39 l-31 -39 0 -401 c0 -350 -2 -401
-15 -401 -13 0 -15 51 -15 403 l0 402 46 53 46 52 -157 0 c-145 0 -155 -1
-146 -17z"/>
<path d="M9620 1656 c0 -2 14 -21 31 -42 34 -44 35 -34 -18 -202 l-36 -113
-32 31 c-44 43 -59 20 -16 -24 30 -31 40 -56 22 -56 -5 0 -21 16 -36 36 l-28
36 -32 -68 -31 -69 43 -13 c24 -7 46 -19 49 -26 7 -17 -26 -130 -66 -226 -36
-87 -87 -159 -142 -199 l-42 -31 165 0 c159 0 189 -5 189 -32 0 -4 -72 -8
-161 -8 -104 0 -158 -3 -154 -10 4 -6 77 -10 185 -10 l179 0 -45 72 c-41 66
-44 77 -44 139 0 39 9 94 21 134 24 77 18 79 89 -42 l38 -65 18 33 c21 42 96
139 106 139 17 0 5 -24 -53 -107 -36 -53 -55 -89 -48 -92 6 -2 15 3 20 10 22
39 85 123 95 126 6 2 25 -42 42 -99 l32 -103 -48 -42 -47 -43 176 0 c169 0
199 -5 199 -32 0 -4 -75 -8 -166 -8 -107 0 -163 -3 -159 -10 4 -6 81 -10 198
-10 l191 0 -71 73 -72 72 -51 156 c-27 86 -50 161 -50 168 0 7 19 9 60 4 33
-3 60 -3 60 1 0 4 -11 32 -24 64 -13 31 -29 74 -36 95 -6 20 -16 37 -22 37
-12 0 -2 -50 23 -108 11 -24 19 -48 19 -53 0 -5 -27 -9 -60 -9 -33 0 -60 -1
-60 -3 0 -1 27 -83 60 -182 47 -141 67 -186 92 -214 33 -34 32 -34 -14 5 -46
38 -49 43 -98 199 -28 88 -55 172 -60 187 -8 26 -6 28 28 38 20 5 47 10 59 10
l22 0 -19 43 c-10 23 -22 59 -25 80 l-7 38 -29 -27 c-33 -32 -25 -45 -80 128
l-38 121 30 38 c16 20 29 42 29 48 0 23 -19 10 -52 -35 l-35 -47 47 -149 c27
-81 44 -151 39 -154 -11 -6 -16 7 -70 180 l-43 136 33 45 32 45 -150 0 c-83 0
-151 -2 -151 -4z m120 -204 c0 -9 -18 -72 -41 -140 l-41 -122 29 -33 c47 -53
76 -106 68 -125 -5 -13 -13 -6 -37 33 -17 28 -44 67 -60 87 l-29 38 47 144
c43 129 64 168 64 118z m61 -182 l41 -130 -30 -35 -31 -34 -45 64 -45 64 31
101 c17 55 33 100 34 100 2 0 22 -58 45 -130z m-200 -274 c-32 -107 -37 -174
-17 -232 l16 -49 -20 25 c-47 59 -49 118 -9 254 30 105 28 101 41 88 8 -8 5
-31 -11 -86z"/>
<path d="M3326 1585 c93 -94 138 -235 137 -435 0 -117 -3 -145 -25 -212 -63
-192 -179 -291 -338 -292 -62 0 -85 5 -135 29 -85 41 -86 41 -31 1 67 -49 105
-59 195 -54 92 6 158 36 217 100 96 103 134 214 141 403 6 151 -9 241 -56 341
-30 65 -113 164 -137 164 -7 0 7 -20 32 -45z"/>
<path d="M5934 1568 c-29 -57 -64 -153 -64 -175 0 -32 19 -8 40 50 12 34 33
83 46 109 26 51 29 68 14 68 -5 0 -22 -24 -36 -52z"/>
<path d="M2590 1487 c-33 -69 -60 -132 -60 -141 0 -21 19 -20 27 2 3 9 30 70
59 135 28 64 48 120 43 123 -5 3 -36 -51 -69 -119z"/>
<path d="M4200 1487 c-33 -69 -60 -132 -60 -141 0 -21 19 -20 27 2 3 9 30 70
59 135 28 64 48 120 43 123 -5 3 -36 -51 -69 -119z"/>
<path d="M10995 1540 c70 -139 25 -285 -112 -362 -61 -34 -61 -25 -7 -152 49
-115 108 -209 179 -284 l63 -67 -97 -47 c-101 -49 -161 -91 -149 -104 4 -4 25
5 46 19 51 33 167 91 215 107 l38 12 -61 55 c-69 63 -133 149 -180 243 -31 61
-73 171 -68 175 2 2 18 10 37 20 55 28 118 100 137 157 23 71 15 162 -20 222
-37 64 -52 68 -21 6z"/>
<path d="M2215 1537 c-65 -69 -80 -133 -80 -347 1 -183 13 -257 55 -340 19
-37 82 -100 100 -100 17 0 11 10 -20 37 -73 61 -112 194 -113 388 -1 201 27
308 96 359 38 28 97 27 137 -3 34 -24 51 -22 30 4 -23 28 -67 45 -116 45 -43
0 -51 -4 -89 -43z"/>
<path d="M3825 1537 c-65 -69 -80 -133 -80 -347 1 -183 13 -257 55 -340 19
-37 82 -100 100 -100 17 0 11 10 -20 37 -73 61 -112 194 -113 388 -1 201 27
308 96 359 38 28 97 27 137 -3 34 -24 51 -22 30 4 -23 28 -67 45 -116 45 -43
0 -51 -4 -89 -43z"/>
<path d="M9158 1114 c-3 -3 6 -26 21 -52 23 -41 26 -58 26 -137 0 -75 -4 -98
-24 -138 -26 -53 -81 -100 -140 -118 -21 -7 -145 -14 -299 -16 -167 -3 -260
-9 -254 -15 5 -5 119 -8 283 -6 259 3 276 4 314 25 55 29 100 79 126 138 31
70 31 191 0 257 -23 48 -44 72 -53 62z"/>
<path d="M2612 921 c-14 -98 -45 -163 -104 -218 -56 -51 -104 -68 -194 -67
-54 1 -84 7 -129 28 -71 32 -83 27 -22 -9 60 -35 100 -45 173 -45 118 0 198
47 251 147 43 82 73 231 47 240 -7 2 -15 -27 -22 -76z"/>
<path d="M4222 921 c-14 -98 -45 -163 -104 -218 -56 -51 -104 -68 -194 -67
-54 1 -84 7 -129 28 -71 32 -83 27 -22 -9 60 -35 100 -45 173 -45 118 0 198
47 251 147 43 82 73 231 47 240 -7 2 -15 -27 -22 -76z"/>
<path d="M8006 917 c12 -39 60 -141 86 -182 20 -32 23 -45 15 -62 l-10 -23
-344 0 c-227 0 -342 -3 -338 -10 4 -6 132 -10 350 -10 l344 0 16 30 c15 29 14
33 -42 149 -32 66 -64 122 -71 125 -10 4 -11 0 -6 -17z"/>
</g>
</svg>
